<mxfile host="65bd71144e">
    <diagram id="rLTFirSggqk5s6QhS6uG" name="Page-1">
        <mxGraphModel dx="1639" dy="847" grid="1" gridSize="10" guides="1" tooltips="1" connect="1" arrows="1" fold="1" page="1" pageScale="1" pageWidth="827" pageHeight="1169" math="0" shadow="0">
            <root>
                <mxCell id="0"/>
                <mxCell id="1" parent="0"/>
                <mxCell id="138" value="d1: Decay" style="html=1;fontFamily=Alegreya Sans;fontStyle=1;fontSize=11;fontSource=https%3A%2F%2Ffonts.googleapis.com%2Fcss%3Ffamily%3DAlegreya%2BSans;rounded=1;" vertex="1" parent="1">
                    <mxGeometry x="-800" y="180" width="110" height="40" as="geometry"/>
                </mxCell>
                <mxCell id="139" value="d2: Decay" style="html=1;fontFamily=Alegreya Sans;fontStyle=1;fontSize=11;fontSource=https%3A%2F%2Ffonts.googleapis.com%2Fcss%3Ffamily%3DAlegreya%2BSans;rounded=1;" vertex="1" parent="1">
                    <mxGeometry x="-645" y="180" width="110" height="40" as="geometry"/>
                </mxCell>
                <mxCell id="140" value="d3: Decay" style="html=1;fontFamily=Alegreya Sans;fontStyle=1;fontSize=11;fontSource=https%3A%2F%2Ffonts.googleapis.com%2Fcss%3Ffamily%3DAlegreya%2BSans;rounded=1;" vertex="1" parent="1">
                    <mxGeometry x="-490" y="180" width="110" height="40" as="geometry"/>
                </mxCell>
                <mxCell id="141" value="m1: MeasurementSeries" style="html=1;fontFamily=Alegreya Sans;fontStyle=1;fontSize=11;fontSource=https%3A%2F%2Ffonts.googleapis.com%2Fcss%3Ffamily%3DAlegreya%2BSans;rounded=1;" vertex="1" parent="1">
                    <mxGeometry x="-800" y="20" width="110" height="40" as="geometry"/>
                </mxCell>
                <mxCell id="142" value="n1: InnerNode" style="html=1;fontFamily=Alegreya Sans;fontStyle=1;fontSize=11;fontSource=https%3A%2F%2Ffonts.googleapis.com%2Fcss%3Ffamily%3DAlegreya%2BSans;rounded=1;" vertex="1" parent="1">
                    <mxGeometry x="-800" y="90" width="110" height="40" as="geometry"/>
                </mxCell>
                <mxCell id="143" value="n2: InnerNode" style="html=1;fontFamily=Alegreya Sans;fontStyle=1;fontSize=11;fontSource=https%3A%2F%2Ffonts.googleapis.com%2Fcss%3Ffamily%3DAlegreya%2BSans;rounded=1;" vertex="1" parent="1">
                    <mxGeometry x="-645" y="90" width="110" height="40" as="geometry"/>
                </mxCell>
                <mxCell id="144" value="n3: InnerNode" style="html=1;fontFamily=Alegreya Sans;fontStyle=1;fontSize=11;fontSource=https%3A%2F%2Ffonts.googleapis.com%2Fcss%3Ffamily%3DAlegreya%2BSans;rounded=1;" vertex="1" parent="1">
                    <mxGeometry x="-490" y="90" width="110" height="40" as="geometry"/>
                </mxCell>
                <mxCell id="145" value="n4: LeafNode" style="html=1;fontFamily=Alegreya Sans;fontStyle=1;fontSize=11;fontSource=https%3A%2F%2Ffonts.googleapis.com%2Fcss%3Ffamily%3DAlegreya%2BSans;rounded=1;" vertex="1" parent="1">
                    <mxGeometry x="-330" y="90" width="110" height="40" as="geometry"/>
                </mxCell>
                <mxCell id="146" value="next" style="endArrow=open;endFill=1;endSize=7;html=1;fontFamily=Alegreya Sans;fontSource=https%3A%2F%2Ffonts.googleapis.com%2Fcss%3Ffamily%3DAlegreya%2BSans;" edge="1" parent="1" source="142" target="143">
                    <mxGeometry x="0.3333" y="10" width="160" relative="1" as="geometry">
                        <mxPoint x="-620" y="19.999999999999773" as="sourcePoint"/>
                        <mxPoint x="-620" y="66" as="targetPoint"/>
                        <mxPoint as="offset"/>
                    </mxGeometry>
                </mxCell>
                <mxCell id="147" value="next" style="endArrow=open;endFill=1;endSize=7;html=1;fontFamily=Alegreya Sans;fontSource=https%3A%2F%2Ffonts.googleapis.com%2Fcss%3Ffamily%3DAlegreya%2BSans;" edge="1" parent="1" source="143" target="144">
                    <mxGeometry x="0.3333" y="10" width="160" relative="1" as="geometry">
                        <mxPoint x="-545.0000000000001" y="140" as="sourcePoint"/>
                        <mxPoint x="-500" y="140" as="targetPoint"/>
                        <mxPoint as="offset"/>
                    </mxGeometry>
                </mxCell>
                <mxCell id="148" value="next" style="endArrow=open;endFill=1;endSize=7;html=1;fontFamily=Alegreya Sans;fontSource=https%3A%2F%2Ffonts.googleapis.com%2Fcss%3Ffamily%3DAlegreya%2BSans;" edge="1" parent="1" source="144" target="145">
                    <mxGeometry x="0.3333" y="10" width="160" relative="1" as="geometry">
                        <mxPoint x="-375.0000000000001" y="159.31" as="sourcePoint"/>
                        <mxPoint x="-330" y="159.31" as="targetPoint"/>
                        <mxPoint as="offset"/>
                    </mxGeometry>
                </mxCell>
                <mxCell id="149" value="head" style="endArrow=open;endFill=1;endSize=7;html=1;fontFamily=Alegreya Sans;fontSource=https%3A%2F%2Ffonts.googleapis.com%2Fcss%3Ffamily%3DAlegreya%2BSans;" edge="1" parent="1" source="141" target="142">
                    <mxGeometry x="0.3333" y="15" width="160" relative="1" as="geometry">
                        <mxPoint x="-680.0000000000001" y="120" as="sourcePoint"/>
                        <mxPoint x="-635" y="120" as="targetPoint"/>
                        <mxPoint as="offset"/>
                    </mxGeometry>
                </mxCell>
                <mxCell id="150" value="decay" style="endArrow=open;endFill=1;endSize=7;html=1;fontFamily=Alegreya Sans;fontSource=https%3A%2F%2Ffonts.googleapis.com%2Fcss%3Ffamily%3DAlegreya%2BSans;" edge="1" parent="1" source="142" target="138">
                    <mxGeometry x="0.2" y="25" width="160" relative="1" as="geometry">
                        <mxPoint x="-680.0000000000001" y="120" as="sourcePoint"/>
                        <mxPoint x="-635" y="120" as="targetPoint"/>
                        <mxPoint as="offset"/>
                    </mxGeometry>
                </mxCell>
                <mxCell id="151" value="decay" style="endArrow=open;endFill=1;endSize=7;html=1;fontFamily=Alegreya Sans;fontSource=https%3A%2F%2Ffonts.googleapis.com%2Fcss%3Ffamily%3DAlegreya%2BSans;" edge="1" parent="1" source="143" target="139">
                    <mxGeometry x="0.2" y="25" width="160" relative="1" as="geometry">
                        <mxPoint x="-735.0000000000001" y="140" as="sourcePoint"/>
                        <mxPoint x="-735.0000000000001" y="190" as="targetPoint"/>
                        <mxPoint as="offset"/>
                    </mxGeometry>
                </mxCell>
                <mxCell id="152" value="decay" style="endArrow=open;endFill=1;endSize=7;html=1;fontFamily=Alegreya Sans;fontSource=https%3A%2F%2Ffonts.googleapis.com%2Fcss%3Ffamily%3DAlegreya%2BSans;" edge="1" parent="1" source="144" target="140">
                    <mxGeometry x="0.2" y="25" width="160" relative="1" as="geometry">
                        <mxPoint x="-725.0000000000001" y="150" as="sourcePoint"/>
                        <mxPoint x="-725.0000000000001" y="200" as="targetPoint"/>
                        <mxPoint as="offset"/>
                    </mxGeometry>
                </mxCell>
            </root>
        </mxGraphModel>
    </diagram>
</mxfile>
